<?xml version="1.0"?>
<svg version="1.1" xmlns="http://www.w3.org/2000/svg" xmlns:xlink="http://www.w3.org/1999/xlink" width="110" height="98.1817">
    <desc iVinci="yes" version="4.6" gridStep="20" showGrid="no" snapToGrid="no" codePlatform="0"/>
    <g id="Layer1" name="Layer 1" opacity="1">
        <g id="Shape1">
            <desc shapeID="1" type="0" basicInfo-basicType="0" basicInfo-roundedRectRadius="12" basicInfo-polygonSides="6" basicInfo-starPoints="5" bounding="rect(-55.1672,-49.0909,110.334,98.1818)" text="" font-familyName="" font-pixelSize="20" font-bold="0" font-underline="0" font-alignment="1" strokeStyle="0" markerStart="0" markerEnd="0" shadowEnabled="0" shadowOffsetX="0" shadowOffsetY="2" shadowBlur="4" shadowOpacity="160" blurEnabled="0" blurRadius="4" transform="matrix(1,0,0,1,55.1221,49.0898)" pers-center="0,0" pers-size="0,0" pers-start="0,0" pers-end="0,0" locked="0" mesh="" flag=""/>
            <path id="shapePath1" d="M54.2816,-0.00107574 C35.5252,-0.00107574 15.9371,15.154 10.4475,33.7555 L1.39778,64.4241 C-4.0911,83.0259 6.55283,98.1808 25.3106,98.1808 L55.9627,98.1808 C74.719,98.1808 94.3072,83.0257 99.7968,64.4241 L108.846,33.7555 C114.335,15.1538 103.691,-0.00107574 84.9336,-0.00107574 L54.2816,-0.00107574 M52.9468,4.52183 L83.5988,4.52183 C99.7178,4.52183 108.932,17.4814 104.129,33.755 L95.0795,64.4236 C90.2775,80.6977 73.4155,93.6568 57.2963,93.6568 L26.6443,93.6568 C10.5253,93.6568 1.31073,80.6972 6.11391,64.4236 L15.1636,33.755 C19.9657,17.4809 36.8276,4.52183 52.9468,4.52183 Z" style="stroke:none;fill-rule:nonzero;fill:#333333;fill-opacity:1;"/>
        </g>
        <g id="Shape2">
            <desc shapeID="2" type="0" basicInfo-basicType="0" basicInfo-roundedRectRadius="12" basicInfo-polygonSides="6" basicInfo-starPoints="5" bounding="rect(-35.7141,-27.6981,71.4282,55.3963)" text="" font-familyName="" font-pixelSize="20" font-bold="0" font-underline="0" font-alignment="1" strokeStyle="0" markerStart="0" markerEnd="0" shadowEnabled="0" shadowOffsetX="0" shadowOffsetY="2" shadowBlur="4" shadowOpacity="160" blurEnabled="0" blurRadius="4" transform="matrix(1,0,0,1,60.4123,50.8711)" pers-center="0,0" pers-size="0,0" pers-start="0,0" pers-end="0,0" locked="0" mesh="" flag=""/>
            <path id="shapePath2" d="M24.6983,78.5689 C24.8397,75.7037 25.4578,72.9761 26.807,70.4228 C27.336,69.4219 27.9616,68.4753 28.5387,67.5015 C33.0023,60.4868 38.2298,53.9191 44.3657,48.2867 C45.8446,46.9291 47.4126,45.6715 48.9359,44.3639 C57.9452,37.1828 68.046,31.5448 78.4047,26.5752 C81.1914,25.2675 84.0705,24.1883 86.9728,23.173 L96.1264,24.3342 C92.9852,25.2497 89.8665,26.2408 86.8577,27.5421 C85.4151,28.1814 83.9583,28.7909 82.5294,29.4599 C73.478,33.6965 64.8105,38.8347 56.9802,45.0573 C53.2751,48.2603 51.7881,49.3698 48.4663,52.9225 C44.2129,57.4711 40.6054,62.5848 37.4764,67.9574 C35.5925,71.5557 34.0867,74.412 34.6076,78.5693 L24.6983,78.5693 L24.6983,78.5689 Z" style="stroke:none;fill-rule:nonzero;fill:#333333;fill-opacity:1;"/>
        </g>
        <g id="Shape3">
            <desc shapeID="3" type="0" basicInfo-basicType="0" basicInfo-roundedRectRadius="12" basicInfo-polygonSides="6" basicInfo-starPoints="5" bounding="rect(-28.6417,-21.797,57.2833,43.594)" text="" font-familyName="" font-pixelSize="20" font-bold="0" font-underline="0" font-alignment="1" strokeStyle="0" markerStart="0" markerEnd="0" shadowEnabled="0" shadowOffsetX="0" shadowOffsetY="2" shadowBlur="4" shadowOpacity="160" blurEnabled="0" blurRadius="4" transform="matrix(1,0,0,1,61.826,56.7719)" pers-center="0,0" pers-size="0,0" pers-start="0,0" pers-end="0,0" locked="0" mesh="" flag=""/>
            <path id="shapePath3" d="M33.1843,78.5689 C33.5191,74.9853 34.8617,71.584 36.3044,68.3215 C38.3439,64.2751 41.0867,60.5926 44.3015,57.4 C46.6677,55.0503 48.1179,53.9929 50.7189,51.8949 C57.1461,46.8966 64.157,42.6974 71.4301,39.0611 C74.5845,37.4673 77.8828,36.2015 81.1919,34.9749 L90.4676,36.1283 C86.9935,37.255 83.5392,38.4625 80.2438,40.0511 C72.8708,43.532 65.7515,47.6296 59.3214,52.6652 C56.6884,54.7804 55.4287,55.6711 53.054,58.05 C49.9632,61.1474 47.3843,64.7498 45.5028,68.7001 C44.1761,71.7822 42.8198,75.1443 43.1135,78.5684 L33.1843,78.5684 L33.1843,78.5689 Z" style="stroke:none;fill-rule:nonzero;fill:#333333;fill-opacity:1;"/>
        </g>
        <g id="Shape4">
            <desc shapeID="4" type="0" basicInfo-basicType="0" basicInfo-roundedRectRadius="12" basicInfo-polygonSides="6" basicInfo-starPoints="5" bounding="rect(-17.9174,-23.2861,35.8348,46.5723)" text="" font-familyName="" font-pixelSize="20" font-bold="0" font-underline="0" font-alignment="1" strokeStyle="0" markerStart="0" markerEnd="0" shadowEnabled="0" shadowOffsetX="0" shadowOffsetY="2" shadowBlur="4" shadowOpacity="160" blurEnabled="0" blurRadius="4" transform="matrix(1,0,0,1,36.0154,55.2828)" pers-center="0,0" pers-size="0,0" pers-start="0,0" pers-end="0,0" locked="0" mesh="" flag=""/>
            <path id="shapePath4" d="M18.098,78.5689 C18.2347,76.0627 18.2771,73.5706 18.8231,71.105 C18.9739,70.4212 19.1814,69.7511 19.3605,69.0742 C21.1916,63.6148 24.2103,58.6613 27.0932,53.7106 C30.5456,48.0905 34.675,42.9418 38.9704,37.9525 C40.7204,35.9003 42.5822,33.9517 44.4378,31.9967 L53.9328,32.7456 C51.9168,34.6512 49.8863,36.5423 48.0316,38.61 C43.6118,43.4664 39.4225,48.5632 35.9857,54.1744 C33.2324,59.0458 30.4372,63.9626 28.7131,69.3116 C28.5481,69.9598 28.3548,70.6008 28.2195,71.2562 C27.7297,73.6695 27.7325,76.1282 27.9696,78.5688 L18.0999,78.5688 L18.098,78.5689 Z" style="stroke:none;fill-rule:nonzero;fill:#333333;fill-opacity:1;"/>
        </g>
    </g>
</svg>
